Coordinates
version=1
nRows=16
nColumns=63
inDegrees=yes

Units are S.I. units (second, meters, Newtons, ...)
If the header above contains a line with 'inDegrees', this indicates whether rotational values are in degrees (yes) or radians (no).

endheader
time	pelvis_tilt	pelvis_list	pelvis_rotation	pelvis_tx	pelvis_ty	pelvis_tz	hip_flexion_r	hip_adduction_r	hip_rotation_r	knee_angle_r	knee_angle_r_beta	ankle_angle_r	subtalar_angle_r	mtp_angle_r	hip_flexion_l	hip_adduction_l	hip_rotation_l	knee_angle_l	knee_angle_l_beta	ankle_angle_l	subtalar_angle_l	mtp_angle_l	L5_S1_Flex_Ext	L5_S1_Lat_Bending	L5_S1_axial_rotation	L4_L5_Flex_Ext	L4_L5_Lat_Bending	L4_L5_axial_rotation	L3_L4_Flex_Ext	L3_L4_Lat_Bending	L3_L4_axial_rotation	L2_L3_Flex_Ext	L2_L3_Lat_Bending	L2_L3_axial_rotation	L1_L2_Flex_Ext	L1_L2_Lat_Bending	L1_L2_axial_rotation	L1_T12_Flex_Ext	L1_T12_Lat_Bending	L1_T12_axial_rotation	Abs_r3	Abs_r2	Abs_r1	Abs_t1	Abs_t2	neck_flexion	neck_bending	neck_rotation	arm_flex_r	arm_add_r	arm_rot_r	elbow_flex_r	pro_sup_r	wrist_flex_r	wrist_dev_r	arm_flex_l	arm_add_l	arm_rot_l	elbow_flex_l	pro_sup_l	wrist_flex_l	wrist_dev_l
1.944444	-4.536368	-9.401416	92.051498	0.266080	0.804960	0.582942	5.336170	-5.205844	-3.107266	13.072412	0.228157	27.852499	-3.855983	0.000000	4.098225	2.836571	-6.318018	9.963214	0.173891	28.927775	13.163004	0.000000	-0.105733	0.042419	2.753977	-0.196356	0.056417	2.926101	-0.173708	0.103137	2.926101	-0.120842	0.103137	2.409730	-0.098183	0.086500	2.237606	-0.060416	0.065707	2.065483	-0.755237	0.479850	15.316794	0.000000	0.000000	21.473641	-2.054886	-22.364061	24.894322	-54.158749	-111.939628	128.243780	79.426618	-32.967789	-8.661446	-13.083881	-14.880881	206.842022	4.472178	0.106240	-11.148407	-11.685831
1.962963	-4.366124	-8.812834	93.163732	0.264548	0.805505	0.585397	4.727036	-5.098149	-4.266420	13.109879	0.228811	27.944735	-3.689886	0.000000	3.958720	2.678588	-5.625207	10.575537	0.184578	28.979063	13.105255	0.000000	-0.136981	0.027880	2.934930	-0.254388	0.037080	3.118363	-0.225046	0.067787	3.118363	-0.156556	0.067787	2.568064	-0.127201	0.056853	2.384630	-0.078271	0.043186	2.201197	-0.978443	0.315384	16.323199	0.000000	0.000000	20.498088	-2.199970	-25.007539	30.327643	-49.658037	-106.467630	125.803849	79.492470	-34.395749	-8.319193	-11.864733	-15.705629	200.174755	6.021167	2.381980	-10.689380	-11.790883
1.981481	-4.177493	-8.261777	94.431144	0.263358	0.805977	0.587626	4.091487	-4.918873	-5.372701	13.085318	0.228382	27.875665	-3.930060	0.000000	3.832487	2.486313	-4.670042	11.168960	0.194935	28.918827	12.951952	0.000000	-0.165042	0.013676	3.036040	-0.306500	0.018189	3.225792	-0.271148	0.033252	3.225792	-0.188627	0.033252	2.656535	-0.153258	0.027888	2.466782	-0.094305	0.021184	2.277030	-1.178882	0.154707	16.885543	0.000000	0.000000	19.490525	-2.087845	-27.290153	35.374002	-44.514417	-99.832898	122.470611	79.940794	-34.015255	-7.284396	-10.683169	-16.826586	188.751258	7.960789	6.300436	-10.183141	-11.756863
2.000000	-3.938620	-7.794377	95.824119	0.262390	0.806403	0.589532	3.477504	-4.645469	-6.424402	12.990790	0.226732	27.642581	-4.540644	0.000000	3.752239	2.240208	-3.460202	11.713690	0.204442	28.761522	12.700313	0.000000	-0.186872	0.010781	3.054632	-0.347040	0.014338	3.245546	-0.307012	0.026212	3.245546	-0.213576	0.026212	2.672803	-0.173530	0.021984	2.481888	-0.106779	0.016699	2.290974	-1.334810	0.121951	16.988945	0.000000	0.000000	18.480727	-1.803441	-29.017364	40.012180	-38.982812	-91.819563	118.426647	80.851362	-32.678579	-5.547992	-9.119368	-17.672449	180.458337	8.973735	6.046632	-9.236691	-12.295166
2.018519	-3.664836	-7.423729	97.302767	0.261676	0.806778	0.591088	2.912800	-4.290884	-7.389064	12.831118	0.223945	27.266921	-5.504698	0.000000	3.725046	1.955179	-2.053381	12.181155	0.212601	28.525386	12.399956	0.000000	-0.200299	0.018968	3.015026	-0.371976	0.025227	3.203466	-0.329072	0.046118	3.203466	-0.228922	0.046118	2.638148	-0.185998	0.038679	2.449709	-0.114451	0.029381	2.261270	-1.430717	0.214567	16.768673	0.000000	0.000000	17.447918	-1.478043	-30.322692	44.036670	-33.220595	-82.599131	113.987991	82.195635	-30.844929	-3.159135	-7.486035	-18.537478	170.598660	10.146944	5.914732	-8.236675	-12.830768
2.037037	-3.361587	-7.146375	98.817888	0.261175	0.807153	0.592347	2.419072	-3.865903	-8.257615	12.632166	0.220473	26.775434	-6.735677	0.000000	3.743336	1.641143	-0.483013	12.548303	0.219009	28.207300	12.030975	0.000000	-0.206427	0.040436	2.936454	-0.383356	0.053780	3.119982	-0.339140	0.098316	3.119982	-0.235926	0.098316	2.569397	-0.191688	0.082457	2.385869	-0.117953	0.062635	2.202340	-1.474490	0.457421	16.331674	0.000000	0.000000	16.403547	-1.173096	-31.258645	47.698688	-27.471848	-71.975127	109.538182	83.903583	-28.753898	-0.364015	-5.749928	-19.417879	157.480204	11.862606	7.266870	-7.337030	-13.390038
2.055556	-3.016895	-6.962373	100.304977	0.260823	0.807541	0.593339	2.018239	-3.379486	-9.072284	12.411862	0.216628	26.220823	-8.033211	0.000000	3.806662	1.290573	1.098007	12.809681	0.223571	27.858321	11.697484	0.000000	-0.205736	0.077788	2.830622	-0.382072	0.103458	3.007536	-0.338003	0.189133	3.007536	-0.235136	0.189133	2.476794	-0.191046	0.158625	2.299880	-0.117557	0.120493	2.122966	-1.469551	0.879949	15.743070	0.000000	0.000000	15.360140	-1.030202	-31.892039	51.322891	-21.808915	-59.801661	105.383364	85.477091	-26.018912	2.619369	-4.052083	-19.932405	145.927074	12.999024	8.231095	-6.429180	-13.947178
2.074074	-2.628212	-6.863469	101.753170	0.260537	0.807926	0.594148	1.723591	-2.847295	-9.873136	12.186434	0.212693	25.628795	-9.308815	0.000000	3.914900	0.907283	2.640186	12.951224	0.226041	27.515777	11.444491	0.000000	-0.197975	0.128905	2.721610	-0.367658	0.171443	2.891711	-0.325252	0.313419	2.891711	-0.226265	0.313419	2.381409	-0.183839	0.262863	2.211308	-0.113123	0.199674	2.041207	-1.414112	1.458198	15.136778	0.000000	0.000000	14.395344	-1.075467	-32.360946	55.030337	-16.391740	-46.233310	102.144636	87.243931	-23.184444	6.056707	-2.379186	-20.041413	136.033779	13.612267	9.053458	-5.639616	-14.453987
2.092593	-2.245982	-6.827203	103.110113	0.260358	0.808281	0.594870	1.529765	-2.327732	-10.629318	11.984172	0.209163	25.054289	-10.490671	0.000000	4.050874	0.538039	4.061944	12.984681	0.226625	27.212691	11.284452	0.000000	-0.186164	0.185289	2.629976	-0.345725	0.246435	2.794350	-0.305849	0.450513	2.794350	-0.212767	0.450513	2.301229	-0.172872	0.377842	2.136856	-0.106374	0.287013	1.972482	-1.329750	2.096031	14.627138	0.000000	0.000000	13.487630	-1.325478	-32.770963	58.822043	-11.209408	-31.754554	99.768038	88.934818	-19.190510	8.813385	-0.757617	-19.781475	127.938069	13.757525	9.652624	-4.897328	-14.925694
2.111111	-1.905535	-6.841211	104.366005	0.260283	0.808546	0.595568	1.436456	-1.870475	-11.351340	11.839871	0.206645	24.556991	-11.527800	0.000000	4.209706	0.219612	5.352103	12.927620	0.225630	26.979271	11.205435	0.000000	-0.172165	0.239531	2.571150	-0.319728	0.318576	2.731847	-0.282851	0.582396	2.731847	-0.196768	0.582396	2.249756	-0.159873	0.488452	2.089059	-0.098375	0.371034	1.928363	-1.229760	2.709623	14.299965	0.000000	0.000000	12.638604	-1.798752	-33.225943	62.515216	-6.266432	-17.040302	98.260573	89.087631	-13.285498	11.510811	0.787221	-19.213842	121.688966	13.510228	9.991578	-4.105301	-15.356012
2.129630	-1.623630	-6.892978	105.531318	0.260288	0.808677	0.596244	1.421397	-1.496121	-12.048393	11.750361	0.205082	24.170066	-12.406925	0.000000	4.382973	-0.033036	6.514329	12.798224	0.223371	26.837022	11.197615	0.000000	-0.157706	0.288009	2.550838	-0.292876	0.383052	2.710265	-0.259095	0.700265	2.710265	-0.180242	0.700265	2.231983	-0.146446	0.587308	2.072556	-0.090113	0.446126	1.913128	-1.126479	3.258013	14.186994	0.000000	0.000000	11.879435	-2.512907	-33.751680	65.911816	-1.615287	-2.805811	97.624386	87.149880	-5.251193	14.477817	2.240574	-18.388686	117.706574	12.919661	10.014343	-3.327700	-15.689284
2.148148	-1.396167	-6.985964	106.618065	0.260312	0.808671	0.596898	1.478251	-1.203812	-12.708284	11.705700	0.204303	23.892457	-13.163323	0.000000	4.579458	-0.222469	7.542884	12.621057	0.220279	26.781428	11.284879	0.000000	-0.142493	0.330373	2.563334	-0.264624	0.439397	2.723542	-0.234102	0.803270	2.723542	-0.162856	0.803270	2.242917	-0.132319	0.673697	2.082709	-0.081421	0.511748	1.922500	-1.017815	3.737249	14.256492	0.000000	0.000000	11.262825	-3.455546	-34.287601	68.897534	2.636823	10.488033	97.879901	84.135578	3.808936	16.734091	3.590725	-17.322136	115.826776	12.055699	9.993160	-2.677209	-15.766891
2.166667	-1.202535	-7.124440	107.575800	0.260348	0.808553	0.597397	1.598914	-0.983679	-13.341533	11.700095	0.204205	23.729928	-13.692409	0.000000	4.783233	-0.367055	8.444682	12.397967	0.216385	26.805955	11.362952	0.000000	-0.124700	0.369024	2.613198	-0.231580	0.490803	2.776523	-0.204869	0.897246	2.776523	-0.142519	0.897246	2.286548	-0.115796	0.752515	2.123224	-0.071253	0.571619	1.959899	-0.890719	4.174478	14.533824	0.000000	0.000000	10.763193	-4.641614	-34.827905	71.399833	6.425038	22.380984	99.001423	80.847834	13.103532	18.730399	4.842118	-16.049731	116.865155	10.933138	9.587287	-2.239964	-15.703183
2.185185	-1.012229	-7.294363	108.463004	0.260271	0.808410	0.597788	1.752446	-0.796092	-13.960464	11.688951	0.204011	23.616834	-14.074897	0.000000	4.997663	-0.494539	9.240523	12.145211	0.211974	26.888658	11.475676	0.000000	-0.104124	0.407988	2.685352	-0.193368	0.542625	2.853187	-0.171065	0.991983	2.853187	-0.119003	0.991983	2.349683	-0.096689	0.831970	2.181849	-0.059496	0.631974	2.014014	-0.743746	4.615247	14.935124	0.000000	0.000000	10.424036	-6.018416	-35.297288	73.442534	9.611062	32.750263	100.841104	77.424361	21.408571	19.688006	6.034120	-14.581021	120.329211	9.627875	9.056931	-2.183975	-15.445917
2.203704	-0.818966	-7.484858	109.257921	0.260070	0.808301	0.598082	1.930047	-0.633441	-14.542887	11.668989	0.203662	23.525687	-14.312556	0.000000	5.208849	-0.609868	9.938041	11.864184	0.207069	26.987287	11.570415	0.000000	-0.080698	0.446816	2.782078	-0.149864	0.594265	2.955957	-0.132579	1.086387	2.955957	-0.092230	1.086387	2.434318	-0.074936	0.911146	2.260438	-0.046111	0.692117	2.086558	-0.576418	5.054467	15.473081	0.000000	0.000000	10.219872	-7.558828	-35.771106	75.028691	12.162166	41.423571	103.178303	73.952612	28.184379	19.199422	7.199954	-13.003374	125.309272	8.222945	8.514582	-2.424242	-15.170963
2.222222	-0.621883	-7.677581	109.967773	0.259740	0.808248	0.598313	2.112311	-0.488303	-15.084509	11.634200	0.203055	23.436293	-14.431341	0.000000	5.404907	-0.717895	10.556577	11.570315	0.201940	27.074473	11.625786	0.000000	-0.055370	0.484273	2.895740	-0.102828	0.644083	3.076724	-0.090968	1.177462	3.076724	-0.063283	1.177462	2.533772	-0.051417	0.987530	2.352789	-0.031639	0.750139	2.171805	-0.395504	5.478196	16.105236	0.000000	0.000000	10.144774	-9.171543	-36.246560	76.237316	14.163987	48.372262	105.867966	70.589149	33.132517	17.372780	8.320840	-11.460599	130.675962	6.794980	8.053710	-2.750796	-15.019699
